<svg xmlns="http://www.w3.org/2000/svg" viewBox="0 0 128 128" xml:space="preserve" fill="#fff" style="opacity: 0.4">
    <defs>
        <linearGradient id="fadeGrad" y2="1" x2="0">
            <stop offset="0" stop-color="white" stop-opacity="0.1"/>
			<stop offset="0.5" stop-color="white" stop-opacity=".5"/>
			<stop offset="1" stop-color="white" stop-opacity="0.15"/>
        </linearGradient>
		<mask id="fade" maskContentUnits="objectBoundingBox">
            <rect width="1" height="1" fill="url(#fadeGrad)"/>
        </mask>
    </defs>
	<path mask="url(#fade)" d="M103.7,96.3c0.1,0.3,0.2,0.6,0.2,1.1c0,0.5-0.2,0.9-0.7,1.3c-0.4,0.4-1,0.7-1.5,0.7H79c-2,0-3.4-0.8-4.2-2.5L66,77.1h-8.4
		v19.6c0,0.7-0.3,1.4-0.8,1.9c-0.5,0.5-1.2,0.8-1.9,0.8H33.3c-0.7,0-1.4-0.3-1.9-0.8c-0.5-0.5-0.8-1.2-0.8-1.9V32.1
		c0-0.7,0.3-1.4,0.8-1.9c0.5-0.5,1.2-0.8,1.9-0.8h38.9c9.1,0,16.4,2.2,21.7,6.5c5.3,4.3,8,10.2,8,17.7c0,9.1-3.5,15.6-10.5,19.7
		L103.7,96.3z M57.6,48v10.6h12.5c1.5,0,2.6-0.5,3.4-1.5c0.8-1,1.2-2.2,1.2-3.7c0-1.5-0.4-2.8-1.2-3.8c-0.8-1.1-1.9-1.7-3.5-1.7
		H57.6z"/>
</svg>
