<svg xmlns="http://www.w3.org/2000/svg" viewBox="0 0 128 128" xml:space="preserve" fill="#fff" style="opacity: 0.4">
    <defs>
        <linearGradient id="fadeGrad" y2="1" x2="0">
            <stop offset="0" stop-color="white" stop-opacity="0.1"/>
            <stop offset="0.5" stop-color="white" stop-opacity=".5"/>
            <stop offset="1" stop-color="white" stop-opacity="0.15"/>
        </linearGradient>
        <mask id="fade" maskContentUnits="objectBoundingBox">
            <rect width="1" height="1" fill="url(#fadeGrad)"/>
        </mask>
    </defs>
    <path mask="url(#fade)" d="M92.9,62.3c4.6,3.3,7,8.3,7,14.9c0,6.6-3.4,12-10.1,16.1c-6.7,4.1-15.7,6.2-26.8,6.2c-11.1,0-19.8-2-25.9-6.1
        c-6.2-4.1-9.3-9.1-9.3-15c0-1.5,0.8-2.2,2.3-2.2h20.5c1.4,0,2.5,0.4,3.4,1.2c1.9,1.7,5.1,2.6,9.7,2.6c6.3,0,9.5-0.9,9.5-2.8
        c0-1.2-1-2.1-3-2.8c-2-0.7-6-1.3-11.9-2c-18.9-2.2-28.3-9.2-28.3-21c0-6.6,3-12,9.1-16.1c6.1-4.1,14.2-6.1,24.4-6.1
        c10.2,0,18.4,2.2,24.7,6.6c6.3,4.4,9.4,9,9.4,13.9c0,0.7-0.2,1.2-0.7,1.6c-0.4,0.4-1,0.6-1.8,0.6H73.5c-1.2,0-2.2-0.4-3.1-1.1
        c-1.6-1.4-4-2.1-7.2-2.1c-4.5,0-6.7,0.9-6.7,2.7c0,1,0.9,1.7,2.6,2.3c1.7,0.5,5.2,1.1,10.4,1.7C80.5,56.7,88.2,59,92.9,62.3z"/>
</svg>
