<svg xmlns="http://www.w3.org/2000/svg" viewBox="0 0 128 128" xml:space="preserve" fill="#fff" style="opacity: 0.4">
    <defs>
        <linearGradient id="fadeGrad" y2="1" x2="0">
            <stop offset="0" stop-color="white" stop-opacity="0.1"/>
			<stop offset="0.5" stop-color="white" stop-opacity=".5"/>
			<stop offset="1" stop-color="white" stop-opacity="0.15"/>
        </linearGradient>
		<mask id="fade" maskContentUnits="objectBoundingBox">
            <rect width="1" height="1" fill="url(#fadeGrad)"/>
        </mask>
    </defs>
	<path mask="url(#fade)" d="M62.5,78.9h34.1c0.7,0,1.4,0.3,1.9,0.8c0.5,0.5,0.8,1.2,0.8,1.9v15.1c0,0.7-0.3,1.4-0.8,1.9c-0.5,0.5-1.2,0.8-1.9,0.8H38.2
		c-0.7,0-1.4-0.3-1.9-0.8c-0.5-0.5-0.8-1.2-0.8-1.9V32.1c0-0.7,0.3-1.4,0.8-1.9c0.5-0.5,1.2-0.8,1.9-0.8h21.6c0.7,0,1.4,0.3,1.9,0.8
		c0.5,0.5,0.8,1.2,0.8,1.9V78.9z"/>
</svg>
